HIERARCHY
ROOT hip
{
  OFFSET 0.0 0.0 0.0
  CHANNELS 6 Xposition Yposition Zposition Zrotation Yrotation Xrotation
  JOINT torso
  {
    OFFSET 0.0 0.0 0.0
    CHANNELS 3 Zrotation Xrotation Yrotation
    JOINT neck
    {
      OFFSET -8.059630999999968 325.56260699999996 64.6221310000002
      CHANNELS 3 Zrotation Xrotation Yrotation
      JOINT head
      {
        OFFSET 34.685424000000125 375.1179809999999 232.79357900000002
        CHANNELS 3 Zrotation Xrotation Yrotation
        End Site
        {
          OFFSET 0.0 0.0 0.0
        }
      }
    }
    JOINT left_collar
    {
      OFFSET -8.059630999999968 325.56260699999996 64.6221310000002
      CHANNELS 3 Zrotation Xrotation Yrotation
      JOINT left_upper_arm
      {
        OFFSET -124.124665 -15.370300999999927 25.582641999999964
        CHANNELS 3 Zrotation Xrotation Yrotation
        JOINT left_forearm
        {
          OFFSET -268.19913399999996 105.06054699999993 114.74548300000004
          CHANNELS 3 Zrotation Xrotation Yrotation
          JOINT left_hand
          {
            OFFSET -235.82003099999991 -10.198180999999977 -38.67455999999993
            CHANNELS 3 Zrotation Xrotation Yrotation
            End Site
            {
              OFFSET 0.0 0.0 0.0
            }
          }
        }
      }
    }
    JOINT right_collar
    {
      OFFSET -8.059630999999968 325.56260699999996 64.6221310000002
      CHANNELS 3 Zrotation Xrotation Yrotation
      JOINT right_upper_arm
      {
        OFFSET 162.73931899999997 -2.8598030000000563 26.244994999999903
        CHANNELS 3 Zrotation Xrotation Yrotation
        JOINT right_forearm
        {
          OFFSET 284.6506340000001 103.07031299999994 145.84521499999994
          CHANNELS 3 Zrotation Xrotation Yrotation
          JOINT right_hand
          {
            OFFSET 226.332337 -12.198241999999937 -49.27258299999994
            CHANNELS 3 Zrotation Xrotation Yrotation
            End Site
            {
              OFFSET 0.0 0.0 0.0
            }
          }
        }
      }
    }
  }
}
MOTION
Frames: 16
Frame Time: 0.01
146.6509730346 186.0026661493996 165.57898912234742 7.157424051209349 0.7635163009584351 -3.637538922804125 -0.18708796687373316 -1.380590632615998 0.0051977420664124484 -4.071839360097908 -3.4705016433836913 2.9263602739873513 0.0 0.0 0.0 2.38800258768894 -0.15956816729899495 4.509264421386586 46.71161962225166 20.375526460862933 -24.45999158548152 9.088252014354756 -0.32300313423275 -9.490113089983474 0.0 0.0 0.0 -1.045223680569174 -0.025884807958883517 -7.284361962489966 -31.779561966895344 14.6119201540719 41.33596019793016 28.064538733182687 -6.879220282347634 64.45199001665597 0.0 0.0 0.0
146.56117262210554 186.01113136702168 165.5096005094949 7.156843947588432 0.7627036781259029 -3.6407092615969523 -0.19372753832606698 -1.375122313566054 0.006718159743967394 -4.0719441029863015 -3.555287852899462 2.93579070993809 0.0 0.0 0.0 2.3892280555832133 -0.1594623770617803 4.509940872366454 46.727190765899685 20.38288371128685 -24.44015912930641 9.093486047598446 -0.32481889534038977 -9.478773699609379 0.0 0.0 0.0 -1.0433690011887553 -0.026000245772002793 -7.28195256795193 -31.801308730828563 14.634020267025948 41.2887850046758 28.019975886984238 -6.875142314586202 64.50949852123621 0.0 0.0 0.0
146.47179628315706 186.0208633296316 165.44158505699198 7.15680717046385 0.7623380639815891 -3.6419230119914894 -0.2003580049158952 -1.370609895164298 0.008214101588250332 -4.068877156657612 -3.6368680516097514 2.942815335727838 0.0 0.0 0.0 2.3893156278315915 -0.15920885704346088 4.508279067790349 46.7424059640327 20.390052360069966 -24.420654987390684 9.098494059714659 -0.3265992114386618 -9.46758258855526 0.0 0.0 0.0 -1.0418553269564745 -0.02610140799086868 -7.280246512760451 -31.81989542938203 14.652939486965476 41.244055436134126 27.975197691053925 -6.869864425526909 64.56214191573417 0.0 0.0 0.0
146.38313171896206 186.0316584964565 165.37520183411985 7.157409611379953 0.7623555564788316 -3.640935712719666 -0.20692467394044245 -1.3670945707162274 0.009673301598395172 -4.06300457142958 -3.714780282484252 2.947616378308436 0.0 0.0 0.0 2.388209694629186 -0.15880040569331486 4.504164548901032 46.75729820753248 20.39705805539306 -24.40152469370955 9.103259039084357 -0.3283215945684847 -9.456710753461872 0.0 0.0 0.0 -1.0407430259467223 -0.026189662657950086 -7.279517740165571 -31.835328371214164 14.6686866512353 41.20236211209744 27.930872672493727 -6.863538644819576 64.60943872609073 0.0 0.0 0.0
146.29547717534632 186.04331011294644 165.31067486554906 7.158746695852945 0.7626608301967287 -3.6375557465878705 -0.21338467954103768 -1.3645697906820564 0.01108708111808092 -4.054690580351035 -3.788605342501261 2.9503807102663844 0.0 0.0 0.0 2.385880524115867 -0.15823312595404976 4.497534573657805 46.77189965985866 20.40392648178865 -24.382818795553867 9.107775386401494 -0.3299647236486583 -9.44632696447127 0.0 0.0 0.0 -1.0400849322626018 -0.0262662318800991 -7.28000692643449 -31.847664335884097 14.68132065318276 41.164225056228204 27.88764827709365 -6.856331380448118 64.65100040305778 0.0 0.0 0.0
146.20913398071022 186.05561386450879 165.2481911735978 7.16090954433915 0.7631307090694776 -3.631649876203154 -0.21970701097309364 -1.3629828549433542 0.01245030021975983 -4.044292155315267 -3.857977058653288 2.9512973867771444 0.0 0.0 0.0 2.3823264826859267 -0.1575065428085517 4.488381456347204 46.78623934670361 20.410682006382 -24.364593351918483 9.112046670954035 -0.3315088290174435 -9.436593237530355 0.0 0.0 0.0 -1.0399251788690063 -0.02633210923869316 -7.281913497115228 -31.857010359090953 14.690949930437101 41.130075915471956 27.846130696875388 -6.848419035672645 64.68654881738073 0.0 0.0 0.0
146.12439967109228 186.06837297849117 165.1878999464985 7.163980899120372 0.7636192471717062 -3.6231471999237863 -0.22587184378244954 -1.362238544350355 0.01376111903989559 -4.0321540230543516 -3.922590736932698 2.9505552411655334 0.0 0.0 0.0 2.3775755920433213 -0.15662359267374049 4.476754378136589 46.80034118352879 20.417346396391046 -24.34690918096556 9.116083428318593 -0.3329360419505351 -9.4276606119264 0.0 0.0 0.0 -1.0402982394028584 -0.026387986601318785 -7.285388822569065 -31.86352166672139 14.697730203048323 41.100244005750056 27.806867114063092 -6.839983577165746 64.71592973727981 0.0 0.0 0.0
146.04156190509784 186.0814026229508 165.12991277074403 7.168030997136454 0.7639640819784697 -3.6120413592426153 -0.23186921516495682 -1.3622045777806873 0.015020583514685729 -4.018604249510418 -3.9822095795279537 2.94834059595571 0.0 0.0 0.0 2.3716863039601876 -0.1555904886523886 4.462759563757663 46.81422241210953 20.42393765704266 -24.32982992552496 9.119901131356595 -0.3342307004823867 -9.41966538726901 0.0 0.0 0.0 -1.0412281884178176 -0.026434194755509854 -7.290530869460027 -31.867397811940645 14.701860539756048 41.07494672287849 27.77033105151689 -6.831208238996065 64.73912162994472 0.0 0.0 0.0
145.96089331869362 186.09453349548647 165.0743048248996 7.173113601896866 0.763993742355219 -3.5983908724719873 -0.23769713684256172 -1.36271858243895 0.016232062552417204 -4.003950474976293 -4.036668951764267 2.9448351400606994 0.0 0.0 0.0 2.3647473833734205 -0.15441647285587276 4.446558766649707 46.82789250324976 20.430469040238723 -24.313419092838235 9.12351843375114 -0.33537960384820575 -9.41272594658171 0.0 0.0 0.0 -1.0427281817591447 -0.026470662235856555 -7.297380542189346 -31.86887719999227 14.703577943926327 41.054284574238444 27.736911302813347 -6.822273520783643 64.75623939255786 0.0 0.0 0.0
145.88264741385103 186.1076145482607 165.02111688579896 7.17926242984094 0.763535538763902 -3.5823175220755616 -0.24335928685724859 -1.3635961928333278 0.017400574939460036 -3.988476853967742 -4.085878468562495 2.940214014295163 0.0 0.0 0.0 2.356876814759979 -0.15311347218660817 4.428366054377766 46.841352563247256 20.436948270495446 -24.297736296829708 9.126955754316294 -0.33637220940102547 -9.406940260800816 0.0 0.0 0.0 -1.0448001560198503 -0.02649689603031544 -7.3059198923897855 -31.868230289654736 14.70315073754024 41.03824081583994 27.706904684671816 -6.813353599327374 64.76753288333374 0.0 0.0 0.0
145.80705551514038 186.12051484976075 164.9703579557898 7.186488211058173 0.7624236415724747 -3.564002785192243 -0.2488624593150341 -1.3646398550290637 0.018532052758834346 -3.972441722227995 -4.129821951216849 2.9346441352519776 0.0 0.0 0.0 2.3482196857646103 -0.15169567739481676 4.408442941722395 46.85459525757922 20.443377026530197 -24.282832987799974 9.130234241835794 -0.3372007676207671 -9.402384137867577 0.0 0.0 0.0 -1.047434746083735 -0.026511986756358595 -7.316072307974009 -31.865751837732283 14.700871083999605 41.02668542937109 27.68051262296166 -6.804613227310725 64.77338038632584 0.0 0.0 0.0
145.73432476709561 186.13312463275486 164.92200829605312 7.194776605968751 0.7605069624203452 -3.5436823678207054 -0.25421397187195355 -1.3656479075669963 0.019632592463933576 -3.9560759790331987 -4.168555371798223 2.9282827714189046 0.0 0.0 0.0 2.3389450514687304 -0.15017906751725876 4.387091981635459 46.86760524037538 20.44975070649696 -24.268747994037938 9.133375131812215 -0.33786039266010115 -9.399110246405737 0.0 0.0 0.0 -1.050611420049922 -0.026514639622986468 -7.3277047177729475 -31.861752605098243 14.697047032059894 41.019382948636185 27.657841362841253 -6.796205146434294 64.77427740133398 0.0 0.0 0.0
145.6646370888411 186.1453556167226 164.87602265452185 7.204087156609889 0.7576564878027628 -3.521638980484322 -0.25941923026761743 -1.3664235348181268 0.02070774413408629 -3.939582141110163 -4.202202951738303 2.921276368401707 0.0 0.0 0.0 2.329241837359249 -0.14858090330513596 4.364648992354282 46.880360055538425 20.456058493726204 -24.255503219242865 9.136399475428613 -0.3383490678625311 -9.397147907138262 0.0 0.0 0.0 -1.0542988301829876 -0.026503231109967967 -7.340631764790792 -31.856550966245617 14.691994481651623 41.01600345975832 27.6389054011555 -6.78826800074161 64.77082138309737 0.0 0.0 0.0
145.5981489595651 186.15714071996436 164.8323335049099 7.214353385518446 0.7537717675652503 -3.498193575529217 -0.26447962671305747 -1.3667832362520276 0.021761883755905678 -3.9231340025765022 -4.230951615096718 2.913759607621916 0.0 0.0 0.0 2.3193138958140374 -0.14691921399855457 4.3414741701930035 46.89283145479996 20.46228372758512 -24.243099836725282 9.139328186717664 -0.3386675878296334 -9.396503604644618 0.0 0.0 0.0 -1.0584553767502516 -0.02647588974512558 -7.354621810884113 -31.85046484807535 14.68602945687112 41.01613598826659 27.62363360293318 -6.7809247043367735 64.76369322612233 0.0 0.0 0.0
145.53499188496642 186.16843329074487 164.79085415654492 7.225484071165268 0.7487863273774326 -3.473695355146306 -0.2693909067386579 -1.3665645169082303 0.022797703239537687 -3.906876828522671 -4.255044022252507 2.9058546791523425 0.0 0.0 0.0 2.309374387313923 -0.14521230232144453 4.3179424131457935 46.90498705805298 20.468404569852858 -24.231515297016713 9.14218231963268 -0.33881944063020714 -9.39716213240987 0.0 0.0 0.0 -1.0630299773024978 -0.026430597637475094 -7.369404535957322 -31.843804359918515 14.679461013328226 41.01930347658385 27.61187740628184 -6.774281200363754 64.75363637367944 0.0 0.0 0.0
145.4752733910652 186.17920598780873 164.75148164380616 7.237365632880449 0.7426718465929654 -3.4485109552251116 -0.27414208199979667 -1.3656325706645194 0.023815839450126074 -3.8909280167478526 -4.274770433608412 2.8976707544946745 0.0 0.0 0.0 2.2996397095491803 -0.14347829369966156 4.294433261303588 46.91679226174543 20.474394940927404 -24.220701422872153 9.144983458459029 -0.3388106352726501 -9.399088252564784 0.0 0.0 0.0 -1.0679630246109009 -0.026365307679914993 -7.3846797849054235 -31.836865374312133 14.672585013645135 41.02497863772134 27.603420537375758 -6.768425545746256 64.74143442642718 0.0 0.0 0.0
